<?xml version="1.0" encoding="UTF-8"?>
<svg xmlns="http://www.w3.org/2000/svg" width="700" height="150" xmlns:xlink="http://www.w3.org/1999/xlink" viewBox="0 0 700 150">
  <defs>
    <linearGradient id="linear-gradient" x1="88.55" y1="-13.45" x2="23.19" y2="127.78" gradientUnits="userSpaceOnUse">
      <stop offset="0" stop-color="#f59d10"/>
      <stop offset="1" stop-color="#e75312"/>
    </linearGradient>
    <linearGradient id="linear-gradient-2" x1="48.75" y1="66.01" x2="9.28" y2="129.67" gradientUnits="userSpaceOnUse">
      <stop offset="0" stop-color="#fff" stop-opacity="0"/>
      <stop offset=".67" stop-color="#9b605c" stop-opacity=".7"/>
      <stop offset="1" stop-color="#721e18"/>
    </linearGradient>
    <linearGradient id="linear-gradient-3" x1="7.98" y1="136.79" x2="99.59" y2="63.32" gradientUnits="userSpaceOnUse">
      <stop offset="0" stop-color="#05509c"/>
      <stop offset="1" stop-color="#089eda"/>
    </linearGradient>
    <linearGradient id="linear-gradient-4" x1="100.43" y1="27.55" x2="104.13" y2="42.75" gradientUnits="userSpaceOnUse">
      <stop offset="0" stop-color="#063145"/>
      <stop offset="1" stop-color="#089eda" stop-opacity="0"/>
    </linearGradient>
  </defs>
  <g style="isolation: isolate;">
    <g id="Laag_1" data-name="Laag 1">
      <g>
        <g>
          <path d="m373.87,33.3c-4.18,0-6.27,1.38-6.27,4.14,0,1.23.52,2.17,1.55,2.82,1.03.65,3.46,1.59,7.27,2.82,3.81,1.23,6.49,2.62,8.02,4.17,1.53,1.55,2.3,3.94,2.3,7.16,0,4.1-1.25,7.21-3.74,9.31-2.49,2.11-5.75,3.16-9.77,3.16-2.99,0-6.65-.46-10.98-1.38l-2.07-.4.8-6.15c5.14.69,9.06,1.03,11.79,1.03,4.06,0,6.09-1.69,6.09-5.06,0-1.23-.47-2.18-1.41-2.87-.94-.69-2.81-1.44-5.61-2.24-4.45-1.26-7.58-2.77-9.4-4.51-1.82-1.74-2.73-4.17-2.73-7.27,0-3.91,1.19-6.82,3.56-8.74,2.38-1.92,5.63-2.87,9.77-2.87,2.84,0,6.44.38,10.81,1.15l2.07.4-.63,6.27c-5.4-.61-9.22-.92-11.44-.92Z" style="fill: #ea5b24;"/>
          <path d="m413.31,46.41v11.96c.08.92.23,1.56.46,1.93.23.36.71.62,1.44.78l-.23,5.81c-1.95,0-3.52-.13-4.69-.4-1.17-.27-2.35-.8-3.54-1.61-2.76,1.34-5.58,2.01-8.45,2.01-5.94,0-8.91-3.14-8.91-9.43,0-3.07.82-5.24,2.47-6.53,1.65-1.28,4.18-2.04,7.59-2.27l6.15-.46v-1.78c0-1.19-.27-2-.8-2.44-.54-.44-1.4-.66-2.59-.66l-10.81.46-.23-5.35c4.1-1.11,8-1.67,11.7-1.67s6.36.77,7.99,2.3c1.63,1.53,2.44,3.99,2.44,7.36Zm-12.94,7.59c-2.15.19-3.22,1.34-3.22,3.45s.94,3.16,2.82,3.16c1.46,0,3.05-.23,4.77-.69l.86-.23v-6.15l-5.23.46Z" style="fill: #ea5b24;"/>
          <path d="m427.22,66.19h-7.7v-28.75h7.65v1.61c2.64-1.53,4.91-2.3,6.78-2.3,3.1,0,5.5.9,7.19,2.7,3.53-1.8,6.75-2.7,9.66-2.7,3.79,0,6.43,1.1,7.91,3.31,1.48,2.2,2.21,5.72,2.21,10.55v15.58h-7.7v-15.35c0-2.45-.27-4.26-.8-5.43-.54-1.17-1.61-1.75-3.22-1.75-1.23,0-2.72.27-4.48.8l-.86.29c.15,2.87.23,5.06.23,6.55v14.89h-7.7v-14.78c0-2.84-.25-4.84-.75-6.01-.5-1.17-1.59-1.75-3.28-1.75-1.49,0-2.97.27-4.43.8l-.69.23v21.5Z" style="fill: #ea5b24;"/>
          <path d="m474.34,58.91c.9.79,2.19,1.18,3.88,1.18,3.56,0,6.75-.11,9.54-.35l1.61-.17.12,5.69c-4.41,1.07-8.39,1.61-11.96,1.61-4.33,0-7.47-1.15-9.43-3.45-1.95-2.3-2.93-6.04-2.93-11.21,0-10.31,4.23-15.47,12.71-15.47s12.53,4.33,12.53,12.99l-.57,5.35h-16.9c.04,1.76.51,3.04,1.41,3.82Zm8.48-9.69c0-2.3-.36-3.9-1.09-4.8-.73-.9-2-1.35-3.82-1.35s-3.1.47-3.85,1.41c-.75.94-1.14,2.52-1.18,4.74h9.95Z" style="fill: #ea5b24;"/>
          <path d="m502.48,66.19h-7.7v-28.75h7.65v1.61c2.61-1.53,5-2.3,7.19-2.3,3.83,0,6.48,1.13,7.93,3.39,1.46,2.26,2.18,5.75,2.18,10.46v15.58h-7.7v-15.35c0-2.45-.29-4.26-.86-5.43-.57-1.17-1.72-1.75-3.45-1.75-1.57,0-3.09.27-4.54.8l-.69.23v21.5Z" style="fill: #ea5b24;"/>
          <path d="m534.16,51.76c0-5.4.91-9.24,2.73-11.5,1.82-2.26,4.92-3.39,9.31-3.39s7.49,1.13,9.31,3.39c1.82,2.26,2.73,6.09,2.73,11.5s-.83,9.26-2.5,11.56c-1.67,2.3-4.84,3.45-9.52,3.45s-7.86-1.15-9.54-3.45c-1.69-2.3-2.53-6.15-2.53-11.56Zm3.56-.09c0,4.54.53,7.69,1.58,9.43,1.05,1.74,3.35,2.62,6.9,2.62s5.85-.88,6.93-2.64c1.07-1.76,1.61-4.9,1.61-9.4s-.6-7.59-1.81-9.26c-1.21-1.67-3.44-2.5-6.7-2.5s-5.49.82-6.7,2.47c-1.21,1.65-1.81,4.74-1.81,9.29Z" style="fill: #ea5b24;"/>
          <path d="m563.36,79.12v-41.68h3.39v2.18c2.99-1.84,6.14-2.76,9.46-2.76s5.79,1.17,7.42,3.51c1.63,2.34,2.44,6.14,2.44,11.41s-.96,9.08-2.87,11.44c-1.92,2.36-5.1,3.54-9.54,3.54-2.38,0-4.68-.25-6.9-.75v13.11h-3.39Zm12.13-39.15c-1.26,0-2.63.21-4.08.63-1.46.42-2.59.86-3.39,1.32l-1.26.63v20.47c2.61.46,4.87.69,6.78.69,3.3,0,5.61-.93,6.96-2.79,1.34-1.86,2.01-4.92,2.01-9.2s-.58-7.3-1.75-9.08c-1.17-1.78-2.92-2.67-5.26-2.67Z" style="fill: #ea5b24;"/>
          <path d="m601.37,37.44h3.51l6.32,25.76h.8l7.47-25.18h3.62l7.47,25.18h.86l6.32-25.76h3.51l-7.19,28.75h-5.98l-6.78-23.69-6.84,23.69h-5.92l-7.19-28.75Z" style="fill: #ea5b24;"/>
          <path d="m664.84,63.31l1.72-.17.11,2.82c-4.33.54-7.99.8-10.98.8-4.14-.04-7.03-1.26-8.68-3.68-1.65-2.41-2.47-6.13-2.47-11.15,0-10.04,3.95-15.06,11.84-15.06,3.79,0,6.63,1.08,8.51,3.25,1.88,2.17,2.82,5.63,2.82,10.38l-.11,2.76h-19.55c0,3.53.6,6.14,1.81,7.85,1.21,1.71,3.28,2.56,6.21,2.56s5.85-.11,8.77-.34Zm-16.79-12.94h16.21c0-3.79-.62-6.5-1.87-8.11-1.25-1.61-3.24-2.41-5.98-2.41s-4.82.83-6.24,2.5c-1.42,1.67-2.13,4.34-2.13,8.02Z" style="fill: #ea5b24;"/>
          <path d="m696.92,70.56c0,3.26-1.04,5.61-3.13,7.07-2.09,1.46-5.34,2.18-9.75,2.18s-7.46-.63-9.14-1.9c-1.69-1.26-2.53-3.58-2.53-6.96,0-1.61.34-2.9,1.03-3.88.69-.98,1.9-2.1,3.62-3.36-.96-.61-1.44-1.92-1.44-3.91,0-.61.46-1.82,1.38-3.62l.46-.86c-3.14-1.3-4.71-4.2-4.71-8.68,0-6.52,3.47-9.77,10.41-9.77,1.95,0,3.68.19,5.17.57l.86.17,8.34-.17v3.05l-5.75-.11c1.38,1.38,2.07,3.65,2.07,6.81s-.87,5.46-2.62,6.9c-1.74,1.44-4.49,2.16-8.25,2.16-1.11,0-2.09-.08-2.93-.23-.77,1.88-1.15,3.07-1.15,3.56,0,1.26.37,2.04,1.12,2.33.75.29,2.98.44,6.7.46,3.72.02,6.35.57,7.91,1.67,1.55,1.09,2.33,3.27,2.33,6.53Zm-21.1.17c0,2.3.57,3.89,1.72,4.77,1.15.88,3.37,1.32,6.67,1.32s5.65-.47,7.07-1.41c1.42-.94,2.13-2.51,2.13-4.71s-.52-3.63-1.55-4.28c-1.03-.65-3.01-.98-5.92-.98l-6.5-.23c-1.42,1-2.38,1.87-2.87,2.62-.5.75-.75,1.72-.75,2.9Zm.4-24.12c0,2.47.54,4.22,1.61,5.23,1.07,1.02,2.88,1.52,5.43,1.52s4.36-.5,5.43-1.49c1.07-1,1.61-2.75,1.61-5.26s-.54-4.28-1.61-5.32c-1.07-1.03-2.88-1.55-5.43-1.55s-4.36.53-5.43,1.58c-1.07,1.05-1.61,2.82-1.61,5.29Z" style="fill: #ea5b24;"/>
          <path d="m365.3,123.76h-3.39v-28.75h3.39v2.13c3.22-1.8,6.34-2.7,9.37-2.7,3.83,0,6.39,1.02,7.68,3.05,1.28,2.03,1.93,5.75,1.93,11.15v15.12h-3.45v-14.95c0-4.41-.42-7.39-1.26-8.94-.84-1.55-2.64-2.33-5.4-2.33-1.34,0-2.75.2-4.23.6-1.48.4-2.62.81-3.42,1.24l-1.21.57v23.8Z" style="fill: #ea5b24;"/>
          <path d="m412.33,103.57v15.41c.15,1.42,1.4,2.26,3.74,2.53l-.17,2.76c-2.95,0-5.12-.77-6.5-2.3-3.6,1.57-7.21,2.36-10.81,2.36-2.57,0-4.52-.74-5.86-2.21-1.34-1.48-2.01-3.58-2.01-6.32s.68-4.77,2.04-6.09c1.36-1.32,3.5-2.14,6.41-2.44l9.77-.98v-2.7c0-2.15-.47-3.69-1.41-4.63-.94-.94-2.19-1.41-3.77-1.41-2.45,0-5.63.23-9.54.69l-1.78.17-.17-2.76c4.22-.8,7.91-1.21,11.07-1.21s5.45.75,6.87,2.24c1.42,1.49,2.13,3.79,2.13,6.9Zm-18.05,12.02c0,3.87,1.59,5.81,4.77,5.81,1.38,0,2.89-.16,4.54-.49,1.65-.33,2.95-.66,3.91-1.01l1.44-.52v-10.41l-9.37.98c-1.88.15-3.23.69-4.05,1.61-.82.92-1.24,2.26-1.24,4.02Z" style="fill: #ea5b24;"/>
          <path d="m441.02,103.57v15.41c.15,1.42,1.4,2.26,3.74,2.53l-.17,2.76c-2.95,0-5.12-.77-6.5-2.3-3.6,1.57-7.21,2.36-10.81,2.36-2.57,0-4.52-.74-5.86-2.21-1.34-1.48-2.01-3.58-2.01-6.32s.68-4.77,2.04-6.09c1.36-1.32,3.5-2.14,6.41-2.44l9.77-.98v-2.7c0-2.15-.47-3.69-1.41-4.63-.94-.94-2.19-1.41-3.77-1.41-2.45,0-5.63.23-9.54.69l-1.78.17-.17-2.76c4.22-.8,7.91-1.21,11.07-1.21s5.45.75,6.87,2.24c1.42,1.49,2.13,3.79,2.13,6.9Zm-18.05,12.02c0,3.87,1.59,5.81,4.77,5.81,1.38,0,2.89-.16,4.54-.49,1.65-.33,2.95-.66,3.91-1.01l1.44-.52v-10.41l-9.37.98c-1.88.15-3.23.69-4.05,1.61-.82.92-1.24,2.26-1.24,4.02Z" style="fill: #ea5b24;"/>
          <path d="m449.93,123.76v-28.75h3.39v4.14c1.42-1,3.15-1.95,5.2-2.87,2.05-.92,3.94-1.53,5.66-1.84v3.45c-1.65.34-3.37.87-5.17,1.58-1.8.71-3.2,1.33-4.2,1.87l-1.49.86v21.56h-3.39Z" style="fill: #ea5b24;"/>
          <path d="m500.35,123.76h-24.61v-6.73l8.11-8.22c2.87-2.95,4.88-5.21,6.01-6.78,1.13-1.57,1.7-3.25,1.7-5.03s-.47-3.04-1.41-3.77c-.94-.73-2.27-1.09-4-1.09-2.57,0-5.37.23-8.39.69l-1.38.17-.4-6.15c3.76-1.15,7.65-1.72,11.67-1.72,8.05,0,12.07,3.62,12.07,10.87,0,2.84-.61,5.29-1.84,7.36-1.23,2.07-3.45,4.58-6.67,7.53l-6.61,5.98h15.75v6.9Z" style="fill: #ea5b24;"/>
          <path d="m509.29,89.83c2.47-3.14,6.14-4.71,11.01-4.71s8.54,1.57,11.01,4.71c2.47,3.14,3.71,8.19,3.71,15.15s-1.23,11.94-3.68,14.95c-2.45,3.01-6.13,4.51-11.04,4.51s-8.59-1.5-11.04-4.51c-2.45-3.01-3.68-7.99-3.68-14.95s1.24-12.01,3.71-15.15Zm17.56,14.98c0-4.73-.5-8.05-1.49-9.95-1-1.9-2.67-2.85-5.03-2.85s-4.04.96-5.06,2.87c-1.02,1.92-1.52,5.23-1.52,9.95s.52,8.01,1.55,9.89c1.03,1.88,2.72,2.82,5.06,2.82s4-.94,5-2.82c1-1.88,1.49-5.18,1.49-9.92Z" style="fill: #ea5b24;"/>
          <path d="m539.96,87.19c3.53-1.38,7.46-2.07,11.81-2.07s7.52.83,9.52,2.5c1.99,1.67,2.99,4.34,2.99,8.02s-1.48,6.5-4.43,8.45c1.84,1,3.15,2.03,3.94,3.1.79,1.07,1.18,2.78,1.18,5.12,0,4.1-1.03,7.15-3.08,9.14-2.05,1.99-5.34,2.99-9.86,2.99-3.33,0-6.84-.5-10.52-1.49l-1.84-.46.4-6.04c4.29.73,7.9,1.09,10.81,1.09,3.95,0,5.92-1.69,5.92-5.06,0-1.42-.51-2.55-1.52-3.39-1.02-.84-2.35-1.26-4-1.26h-7.65v-6.55h7.65c1.26,0,2.39-.54,3.36-1.61.98-1.07,1.47-2.26,1.47-3.56,0-2.72-1.9-4.08-5.69-4.08-2.64,0-5.46.27-8.45.8l-1.49.23-.52-5.86Z" style="fill: #ea5b24;"/>
          <path d="m573.68,89.83c2.47-3.14,6.14-4.71,11.01-4.71s8.54,1.57,11.01,4.71c2.47,3.14,3.71,8.19,3.71,15.15s-1.23,11.94-3.68,14.95c-2.45,3.01-6.13,4.51-11.04,4.51s-8.59-1.5-11.04-4.51c-2.45-3.01-3.68-7.99-3.68-14.95s1.24-12.01,3.71-15.15Zm17.56,14.98c0-4.73-.5-8.05-1.49-9.95-1-1.9-2.67-2.85-5.03-2.85s-4.04.96-5.06,2.87c-1.02,1.92-1.52,5.23-1.52,9.95s.52,8.01,1.55,9.89c1.03,1.88,2.72,2.82,5.06,2.82s4-.94,5-2.82c1-1.88,1.49-5.18,1.49-9.92Z" style="fill: #ea5b24;"/>
        </g>
        <g>
          <g>
            <g>
              <path d="m26.33,91.26c.21-.43.43-.84.65-1.26l-.03-.02c14.68-30.27,44.51-51.32,85.52-63.57-1.77-7.53-4.02-15.2-6.75-23.02C60.72,13.59,27.32,34.02,9.95,65.43l.03.02c-.25.42-.51.84-.74,1.28-13.77,24.89-5.69,55.96,17.88,71.15-7.38-14.03-8.23-31.26-.78-46.61Z" style="fill: url(#linear-gradient);"/>
              <path d="m26.39,91.26c.21-.43.43-.84.66-1.26l-.03-.02c14.67-30.27,44.51-51.32,85.51-63.57-1.76-7.53-4.03-15.2-6.76-23.02C60.78,13.59,27.39,34.02,10.01,65.43l.03.02c-.25.42-.51.84-.75,1.28-13.77,24.89-5.68,55.96,17.89,71.15-7.37-14.03-8.23-31.26-.78-46.61Z" style="fill: url(#linear-gradient-2); mix-blend-mode: multiply;"/>
              <path d="m104.02,117.57c14.27-25.8,16.53-56.82,8.45-91.2-7.08,2.11-13.81,4.51-20.21,7.16,5.49,23.76,4.14,45.62-5.04,64.57l-.03-.02c-.16.36-.31.72-.48,1.08-10.35,21.32-36.01,30.23-57.33,19.89-16.99-8.25-26.09-26.23-23.84-43.98-8.55,24.3,1.41,51.92,24.7,64.82,25.98,14.37,58.69,4.97,73.07-21.01.24-.43.45-.88.68-1.32l.04.02Z" style="fill: url(#linear-gradient-3);"/>
            </g>
            <path d="m116.79,54.6c-.61-9.1-2.06-18.5-4.33-28.17-7.07,2.12-13.82,4.5-20.21,7.16,1.91,8.27,3,16.3,3.21,24.07l21.33-3.05Z" style="fill: url(#linear-gradient-4); mix-blend-mode: multiply;"/>
          </g>
          <g>
            <path d="m143.57,100.93h2.13v21.28h-2.13v-21.28Z" style="fill: #2d89c9;"/>
            <path d="m151.74,122.2v-21.28h.46l14.16,16.31v-16.31h2.1v21.28h-.48l-14.04-16.11v16.11h-2.2Z" style="fill: #2d89c9;"/>
            <path d="m172.62,118.24l1.81-1.08c1.27,2.34,2.74,3.51,4.41,3.51.71,0,1.38-.17,2.01-.5.63-.33,1.1-.78,1.43-1.34.33-.56.49-1.15.49-1.78,0-.71-.24-1.41-.72-2.1-.67-.94-1.88-2.08-3.65-3.41-1.77-1.34-2.88-2.31-3.31-2.91-.75-1-1.13-2.09-1.13-3.25,0-.93.22-1.77.67-2.53.44-.76,1.07-1.36,1.87-1.8.81-.44,1.68-.66,2.63-.66,1,0,1.94.25,2.81.75.87.5,1.8,1.41,2.77,2.74l-1.73,1.32c-.8-1.06-1.48-1.76-2.05-2.1-.56-.34-1.18-.51-1.84-.51-.86,0-1.56.26-2.1.78-.54.52-.82,1.16-.82,1.92,0,.46.1.91.29,1.35.19.43.54.91,1.06,1.42.28.27,1.19.98,2.75,2.13,1.84,1.36,3.1,2.57,3.79,3.63.68,1.06,1.03,2.13,1.03,3.2,0,1.54-.59,2.88-1.76,4.02-1.17,1.14-2.6,1.71-4.27,1.71-1.29,0-2.46-.34-3.51-1.03-1.05-.69-2.02-1.84-2.91-3.46Z" style="fill: #2d89c9;"/>
            <path d="m188.62,103.01v-2.08h11.66v2.08h-4.74v19.19h-2.17v-19.19h-4.74Z" style="fill: #2d89c9;"/>
            <path d="m210.82,100.93l9.92,21.28h-2.3l-3.35-7h-9.17l-3.31,7h-2.37l10.05-21.28h.52Zm-.27,4.52l-3.65,7.7h7.27l-3.63-7.7Z" style="fill: #2d89c9;"/>
            <path d="m225.22,100.93h2.13v19.22h8.19v2.05h-10.31v-21.28Z" style="fill: #2d89c9;"/>
            <path d="m240.09,100.93h2.13v19.22h8.19v2.05h-10.31v-21.28Z" style="fill: #2d89c9;"/>
            <path d="m263.65,100.93l9.92,21.28h-2.3l-3.35-7h-9.17l-3.31,7h-2.37l10.05-21.28h.52Zm-.27,4.52l-3.65,7.7h7.27l-3.63-7.7Z" style="fill: #2d89c9;"/>
            <path d="m273.54,103.01v-2.08h11.66v2.08h-4.74v19.19h-2.17v-19.19h-4.74Z" style="fill: #2d89c9;"/>
            <path d="m289.15,100.93h2.13v21.28h-2.13v-21.28Z" style="fill: #2d89c9;"/>
            <path d="m297.32,100.93h12.19v2.08h-10.07v6.67h9.98v2.08h-9.98v8.36h9.98v2.08h-12.11v-21.28Z" style="fill: #2d89c9;"/>
          </g>
          <g>
            <path d="m291.23,65.01l-34,3.39c.79,2.95,2.34,5.2,4.65,6.76,2.31,1.56,5.11,2.17,8.42,1.84,3.95-.4,7.21-2.11,9.78-5.17l9.33,3.3c-1.91,3.37-4.33,5.97-7.28,7.8-2.95,1.81-6.56,2.94-10.83,3.37-6.61.66-12.21-.9-16.79-4.65-4.58-3.76-7.18-8.78-7.8-15.06-.64-6.43.9-11.99,4.63-16.65,3.72-4.66,8.71-7.31,14.96-7.93,6.65-.67,12.26.93,16.84,4.76,4.59,3.84,7.23,9.25,7.92,16.22l.16,2.02Zm-11.41-7.28c-.93-2.29-2.5-4.06-4.71-5.33-2.21-1.27-4.66-1.76-7.38-1.5-2.95.3-5.46,1.38-7.52,3.26-1.3,1.17-2.4,3.12-3.34,5.85l22.95-2.29Z" style="fill: #2d89c9;"/>
            <path d="m174.5,43.02h10.64v42.36h-10.64v-4.48c-2.08,1.97-4.15,3.4-6.24,4.26-2.09.87-4.35,1.3-6.79,1.3-5.47,0-10.2-2.12-14.2-6.36-3.99-4.25-5.99-9.52-5.99-15.83s1.93-11.9,5.8-16.08c3.86-4.18,8.55-6.27,14.08-6.27,2.54,0,4.93.48,7.16,1.44,2.23.96,4.29,2.4,6.18,4.33v-4.67Zm-11.17,8.72c-3.29,0-6.02,1.16-8.19,3.48-2.17,2.32-3.26,5.31-3.26,8.94s1.11,6.67,3.32,9.04c2.22,2.36,4.94,3.54,8.17,3.54s6.11-1.16,8.31-3.49c2.2-2.32,3.3-5.37,3.3-9.13s-1.1-6.67-3.3-8.95c-2.19-2.28-4.97-3.43-8.34-3.43Z" style="fill: #2d89c9;"/>
            <path d="m206.43,26.66v21.03c1.92-1.92,4-3.37,6.23-4.33,2.23-.96,4.62-1.44,7.16-1.44,5.53,0,10.23,2.09,14.09,6.27,3.87,4.18,5.8,9.54,5.8,16.08s-2,11.59-6,15.83c-3.99,4.24-8.74,6.36-14.21,6.36-2.44,0-4.71-.43-6.81-1.3-2.11-.87-4.2-2.29-6.28-4.26v4.48h-10.55V26.66h10.55Zm11.18,25.08c-3.35,0-6.13,1.15-8.33,3.43-2.21,2.29-3.32,5.27-3.32,8.95s1.11,6.81,3.32,9.13c2.2,2.33,4.98,3.49,8.33,3.49s5.98-1.18,8.2-3.54c2.22-2.37,3.33-5.38,3.33-9.04s-1.1-6.62-3.27-8.94c-2.18-2.32-4.94-3.48-8.26-3.48Z" style="fill: #2d89c9;"/>
            <path d="m298.42,26.66h10.63v58.72h-10.63V26.66Z" style="fill: #2d89c9;"/>
          </g>
        </g>
        <line x1="334.8" y1="26.75" x2="334.8" y2="124.47" style="fill: none; stroke: #f28f0f; stroke-miterlimit: 10; stroke-width: 2.55px;"/>
      </g>
    </g>
  </g>
</svg>