<?xml version="1.0" encoding="UTF-8"?>
<svg id="Layer_1" data-name="Layer 1" xmlns="http://www.w3.org/2000/svg" xmlns:xlink="http://www.w3.org/1999/xlink" viewBox="0 0 100 100">
  <defs>
    <style>
      .cls-1 {
        fill: url(#linear-gradient-5);
      }

      .cls-1, .cls-2, .cls-3, .cls-4, .cls-5 {
        stroke-width: 0px;
      }

      .cls-1, .cls-5 {
        opacity: .96;
      }

      .cls-2 {
        fill: url(#linear-gradient);
        opacity: .1;
      }

      .cls-3 {
        fill: url(#linear-gradient-2);
      }

      .cls-4 {
        fill: url(#linear-gradient-3);
      }

      .cls-5 {
        fill: url(#linear-gradient-4);
      }
    </style>
    <linearGradient id="linear-gradient" x1="1.1" y1="63.96" x2="49.74" y2="54.54" gradientUnits="userSpaceOnUse">
      <stop offset=".28" stop-color="#021815" stop-opacity="0"/>
      <stop offset="1" stop-color="#001013"/>
    </linearGradient>
    <linearGradient id="linear-gradient-2" x1="50" y1="50" x2="75.71" y2="50" gradientUnits="userSpaceOnUse">
      <stop offset="0" stop-color="#bdd79c"/>
      <stop offset="1" stop-color="#80c094"/>
    </linearGradient>
    <linearGradient id="linear-gradient-3" x1="24.29" y1="50" x2="50" y2="50" gradientUnits="userSpaceOnUse">
      <stop offset="0" stop-color="#2ba389"/>
      <stop offset="1" stop-color="#137f6a"/>
    </linearGradient>
    <linearGradient id="linear-gradient-4" x1="50" y1="49.97" x2="50" y2="28.49" gradientUnits="userSpaceOnUse">
      <stop offset="0" stop-color="#6ab78d"/>
      <stop offset="1" stop-color="#27a285"/>
    </linearGradient>
    <linearGradient id="linear-gradient-5" x1="568.51" y1="428.93" x2="568.51" y2="407.45" gradientTransform="translate(618.51 478.95) rotate(-180)" xlink:href="#linear-gradient-4"/>
  </defs>
  <polygon class="cls-2" points="0 93.43 62.86 72.23 37.14 27.73 0 40.19 0 93.43"/>
  <polygon class="cls-3" points="62.86 27.73 50 50 62.86 72.27 75.71 50 62.86 27.73"/>
  <polygon class="cls-4" points="37.14 27.73 24.29 50 37.14 72.27 50 50 37.14 27.73"/>
  <polygon class="cls-5" points="37.14 27.73 50 50 62.86 27.73 37.14 27.73"/>
  <polygon class="cls-1" points="62.86 72.27 50 50 37.14 72.27 62.86 72.27"/>
</svg>